<svg id="visual" viewBox="0 0 900 600" width="900" height="600" xmlns="http://www.w3.org/2000/svg" xmlns:xlink="http://www.w3.org/1999/xlink" version="1.1"><rect x="0" y="0" width="900" height="600" fill="#001220"></rect><defs><linearGradient id="grad1_0" x1="33.3%" y1="0%" x2="100%" y2="100%"><stop offset="20%" stop-color="#001220" stop-opacity="1"></stop><stop offset="80%" stop-color="#001220" stop-opacity="1"></stop></linearGradient></defs><defs><linearGradient id="grad2_0" x1="0%" y1="0%" x2="66.7%" y2="100%"><stop offset="20%" stop-color="#001220" stop-opacity="1"></stop><stop offset="80%" stop-color="#001220" stop-opacity="1"></stop></linearGradient></defs><g transform="translate(900, 0)"><path d="M0 486.7C-47.5 444.9 -94.9 403 -160.3 387.1C-225.8 371.2 -309.2 381.2 -344.2 344.2C-379.2 307.2 -365.9 223.2 -381.6 158C-397.3 92.9 -442 46.4 -486.7 0L0 0Z" fill="#3c87fa"></path></g><g transform="translate(0, 600)"><path d="M0 -486.7C61 -478.4 122 -470 186.3 -449.7C250.5 -429.4 318.1 -397.1 342.9 -342.9C367.8 -288.8 349.9 -212.7 366.8 -151.9C383.6 -91.1 435.2 -45.6 486.7 0L0 0Z" fill="#3c87fa"></path></g></svg>